#!OML:ASF I:\Actors\actors\Patient Classification 1\Patient 1\Session 1\Subject1.ASF
:FULLY-SPECIFIED
:DEGREES
378
root 0.593535 17.6489 8.98329 18.2101 1.0976 -13.2999
lowerback 13.4601 1.56118 2.68903
upperback -5.25426 2.34269 -2.25217
thorax -13.213 0.742526 -4.59874
lowerneck -19.2757 3.62475 4.86652
upperneck 17.9634 1.91072 7.70033
head 8.82943 2.09546 2.09085
rclavicle -4.05521e-014 -9.54166e-015
rhumerus 25.8855 59.3937 -81.3241
rradius 51.0886
rwrist -37.1739
rhand 0.454879 -69.5294
rfingers 7.12502
rthumb 26.026 -262.233
lclavicle -4.05521e-014 -9.54166e-015
lhumerus 16.0653 -12.1797 77.8621
lradius 29.0248
lwrist 41.698
lhand -26.085 22.5352
lfingers 7.12502
lthumb 0.463614 52.5145
rfemur -15.681 28.8728 24.9549
rtibia 0.359764
rfoot -8.78132 -28.8942
rtoes 7.47439
lfemur -11.735 -56.6664 8.19694
ltibia -4.96794
lfoot -38.1346 63.3916
ltoes 21.3168
379
root 0.577295 17.6459 8.97995 18.0096 0.944047 -13.221
lowerback 13.3116 1.63808 2.68169
upperback -5.32874 2.44831 -2.20894
thorax -13.2004 0.795049 -4.5667
lowerneck -19.2701 3.48387 4.76616
upperneck 18.3925 1.69278 7.79921
head 8.97938 2.01284 2.12369
rclavicle -3.65764e-014 7.79236e-014
rhumerus 24.5255 60.2147 -80.8935
rradius 53.5281
rwrist -38.7805
rhand 0.37227 -70.0567
rfingers 7.12502
rthumb 25.9469 -261.694
lclavicle -3.65764e-014 7.79236e-014
lhumerus 13.5076 -16.4086 76.2914
lradius 32.9016
lwrist 46.1525
lhand -26.8818 22.6346
lfingers 7.12502
lthumb -0.305928 52.6141
rfemur -15.4686 28.6917 25.066
rtibia 0.440086
rfoot -8.73472 -28.5736
rtoes 7.30492
lfemur -11.2075 -56.5605 7.66452
ltibia -4.98107
lfoot -38.1832 63.2698
ltoes 21.3953
380
root 0.561271 17.646 8.97617 17.7497 0.809747 -13.0996
lowerback 13.2466 1.70438 2.6559
upperback -5.40455 2.53466 -2.19089
thorax -13.2422 0.836583 -4.5523
lowerneck -19.2853 3.35457 4.63058
upperneck 18.8011 1.46951 8.03666
head 9.12674 1.94081 2.20958
rclavicle 0 1.11319e-014
rhumerus 23.042 61.1631 -80.4935
rradius 55.9756
rwrist -39.9338
rhand 0.592721 -70.2674
rfingers 7.12502
rthumb 26.158 -261.515
lclavicle 0 1.11319e-014
lhumerus 11.0363 -19.8334 75.3016
lradius 36.5455
lwrist 49.8812
lhand -27.5356 22.7808
lfingers 7.12502
lthumb -0.937389 52.7585
rfemur -15.1758 28.4243 25.1813
rtibia 0.510257
rfoot -8.59831 -28.2416
rtoes 6.6934
lfemur -10.6096 -56.5117 7.00999
ltibia -4.97011
lfoot -38.039 63.1912
ltoes 21.2838
381
root 0.546763 17.6431 8.97311 17.5237 0.840765 -12.9412
lowerback 13.1291 1.70937 2.72278
upperback -5.49642 2.55661 -2.15853
thorax -13.274 0.840977 -4.55709
lowerneck -19.2485 3.21397 4.46352
upperneck 19.187 1.25382 8.23134
head 9.25727 1.86367 2.28522
rclavicle 3.18055e-015 1.27222e-014
rhumerus 21.1494 62.1055 -80.4638
rradius 58.2865
rwrist -40.2118
rhand 0.551333 -70.0704
rfingers 7.12502
rthumb 26.1183 -261.706
lclavicle 3.18055e-015 1.27222e-014
lhumerus 8.57902 -22.6486 74.8333
lradius 39.9464
lwrist 53.0868
lhand -28.5475 23.2897
lfingers 7.12502
lthumb -1.91469 53.2609
rfemur -14.8958 28.3911 25.1959
rtibia 0.500435
rfoot -8.64527 -28.2993
rtoes 6.57206
lfemur -10.2393 -56.2988 6.49827
ltibia -4.92854
lfoot -37.3103 62.9569
ltoes 20.8901
382
root 0.532209 17.6348 8.97091 17.3917 0.878744 -12.864
lowerback 12.8157 1.72928 2.91003
upperback -5.61039 2.62017 -2.10079
thorax -13.2036 0.859786 -4.60126
lowerneck -19.1049 3.00295 4.32778
upperneck 19.5387 0.972876 8.28532
head 9.35949 1.73918 2.29469
rclavicle 9.54166e-015 -1.43125e-014
rhumerus 18.5694 62.895 -81.1014
rradius 60.5125
rwrist -40.1563
rhand 0.890279 -70.0089
rfingers 7.12502
rthumb 26.4428 -261.816
lclavicle 9.54166e-015 -1.43125e-014
lhumerus 6.10017 -25.1262 74.7527
lradius 43.0644
lwrist 55.6027
lhand -29.8211 23.6215
lfingers 7.12502
lthumb -3.14472 53.578
rfemur -14.7393 28.4833 25.2366
rtibia 0.509278
rfoot -8.76784 -28.4291
rtoes 6.72424
lfemur -9.99164 -55.7551 6.19934
ltibia -4.97884
lfoot -36.105 62.625
ltoes 20.3127
383
root 0.51553 17.6267 8.96929 17.2365 0.874926 -12.769
lowerback 12.5141 1.76642 3.03326
upperback -5.74414 2.69641 -2.02857
thorax -13.1651 0.889522 -4.59712
lowerneck -19.0148 2.75449 4.0969
upperneck 19.9977 0.64087 8.39611
head 9.51031 1.59525 2.33698
rclavicle -5.56597e-015 3.18055e-015
rhumerus 15.499 63.7055 -82.1418
rradius 62.7965
rwrist -40.5393
rhand 2.06092 -70.3121
rfingers 7.12502
rthumb 27.5629 -261.686
lclavicle -5.56597e-015 3.18055e-015
lhumerus 3.5177 -27.3633 75.0027
lradius 45.8996
lwrist 57.2817
lhand -30.9629 23.6858
lfingers 7.12502
lthumb -4.24734 53.6232
rfemur -14.5421 28.5617 25.2724
rtibia 0.501565
rfoot -8.87405 -28.4904
rtoes 6.69125
lfemur -9.65838 -55.2742 5.81786
ltibia -5.04567
lfoot -34.8608 62.4109
ltoes 19.5659
384
root 0.497866 17.6224 8.96827 17.0432 0.923077 -12.6143
lowerback 12.2386 1.79237 3.09185
upperback -5.87151 2.74561 -1.95668
thorax -13.1401 0.911674 -4.55146
lowerneck -19.0408 2.51004 3.90149
upperneck 20.6061 0.286818 8.48244
head 9.73868 1.44901 2.36891
rclavicle -3.26007e-014 9.54166e-015
rhumerus 11.8976 64.3224 -83.7853
rradius 64.9708
rwrist -41.3246
rhand -3.55185 -70.5972
rfingers 7.12502
rthumb 22.1843 -260.656
lclavicle -3.26007e-014 9.54166e-015
lhumerus 0.827564 -29.3857 75.5255
lradius 48.5862
lwrist 58.5585
lhand -31.5964 23.6617
lfingers 7.12502
lthumb -4.85904 53.586
rfemur -14.2857 28.4962 25.2836
rtibia 0.489129
rfoot -9.0436 -28.4923
rtoes 6.92175
lfemur -9.35435 -54.9382 5.38351
ltibia -5.03223
lfoot -33.9333 62.1531
ltoes 18.9626
385
root 0.481385 17.62 8.96684 16.8592 1.01848 -12.512
lowerback 11.9553 1.82216 3.27115
upperback -6.01037 2.81946 -1.89857
thorax -13.1156 0.933941 -4.59482
lowerneck -18.998 2.26241 3.81855
upperneck 21.1467 -0.081869 8.5097
head 9.93431 1.29466 2.35586
rclavicle -2.06736e-014 -4.77083e-015
rhumerus 7.84398 64.6458 -86.0084
rradius 66.9067
rwrist -42.4168
rhand -3.62271 -71.0966
rfingers 7.12502
rthumb 22.1162 -260.148
lclavicle -2.06736e-014 -4.77083e-015
lhumerus -1.89714 -31.2898 76.2185
lradius 51.1989
lwrist 60.0303
lhand -31.7583 23.7289
lfingers 7.12502
lthumb -5.01531 53.6496
rfemur -14.0874 28.1726 25.3889
rtibia 0.572888
rfoot -9.1375 -28.2916
rtoes 6.87762
lfemur -9.12752 -54.4742 5.0716
ltibia -5.03392
lfoot -32.8284 61.7832
ltoes 18.3273
386
root 0.465563 17.6171 8.96582 16.6405 1.13915 -12.4131
lowerback 11.7056 1.83557 3.50151
upperback -6.15268 2.88239 -1.82302
thorax -13.1156 0.946409 -4.64703
lowerneck -18.8425 2.02102 3.62852
upperneck 21.5802 -0.400839 8.56758
head 10.0693 1.15196 2.37261
rclavicle 2.94201e-014 -1.11319e-014
rhumerus 3.67948 64.9734 -88.2963
rradius 68.7671
rwrist -43.4162
rhand 2.77524 -71.8117
rfingers 7.12502
rthumb 28.2458 -260.297
lclavicle 2.94201e-014 -1.11319e-014
lhumerus -4.58868 -33.1411 77.0387
lradius 53.6035
lwrist 61.7112
lhand -31.8283 23.8467
lfingers 7.12502
lthumb -5.08297 53.7657
rfemur -13.878 27.829 25.5145
rtibia 0.71964
rfoot -9.20235 -28.0616
rtoes 6.55316
lfemur -8.86232 -53.8456 4.71511
ltibia -5.0432
lfoot -31.2904 61.2935
ltoes 17.4227
387
root 0.449032 17.6126 8.96519 16.4077 1.29485 -12.2942
lowerback 11.3868 1.8045 3.68304
upperback -6.27077 2.87768 -1.70456
thorax -13.0556 0.936438 -4.6038
lowerneck -18.6872 1.81467 3.34823
upperneck 22.0449 -0.658409 8.6677
head 10.2144 1.03583 2.42912
rclavicle -5.56597e-015 1.11319e-014
rhumerus -0.506466 65.2593 -90.6362
rradius 70.5528
rwrist -43.4903
rhand -1.0716 -70.4253
rfingers 7.12502
rthumb 24.5636 -261.13
lclavicle -5.56597e-015 1.11319e-014
lhumerus -7.3234 -34.8358 78.0099
lradius 55.8256
lwrist 63.1692
lhand -32.4795 24.0342
lfingers 7.12502
lthumb -5.71169 53.9372
rfemur -13.6452 27.5428 25.6221
rtibia 0.864652
rfoot -9.28033 -27.9005
rtoes 6.24244
lfemur -8.62051 -53.1699 4.34824
ltibia -5.01458
lfoot -29.6567 60.6892
ltoes 16.3371
388
root 0.431 17.607 8.9638 16.1786 1.49475 -12.2356
lowerback 11.0359 1.73349 3.91642
upperback -6.39867 2.8267 -1.57271
thorax -12.9909 0.900763 -4.56419
lowerneck -18.5256 1.64593 3.15369
upperneck 22.5787 -0.905102 8.80135
head 10.3865 0.938243 2.48761
rclavicle 1.39149e-014 2.38542e-014
rhumerus -4.75827 65.4154 -93.1828
rradius 72.2708
rwrist -43.2222
rhand -0.749476 -70.7347
rfingers 7.12502
rthumb 24.8723 -260.863
lclavicle 1.39149e-014 2.38542e-014
lhumerus -10.1324 -36.3154 79.138
lradius 57.8933
lwrist 64.2155
lhand -33.6098 24.5056
lfingers 7.12502
lthumb -6.80294 54.3763
rfemur -13.4083 27.3176 25.7937
rtibia 0.954964
rfoot -9.37796 -27.8331
rtoes 5.97058
lfemur -8.42161 -52.748 4.12921
ltibia -4.97209
lfoot -28.5708 60.1951
ltoes 15.4627
389
root 0.411743 17.5999 8.96469 15.8654 1.63983 -12.2161
lowerback 10.7547 1.68352 4.16521
upperback -6.52674 2.80785 -1.44073
thorax -12.9657 0.877048 -4.54428
lowerneck -18.2881 1.44897 3.02216
upperneck 23.1415 -1.19043 8.85933
head 10.5574 0.818696 2.50295
rclavicle -4.17448e-015 -1.59028e-015
rhumerus -9.19235 65.4591 -95.937
rradius 73.9928
rwrist -43.4029
rhand -0.908586 -70.8763
rfingers 7.12502
rthumb 24.7198 -260.701
lclavicle -4.17448e-015 -1.59028e-015
lhumerus -12.9515 -37.6 80.429
lradius 59.7841
lwrist 65.212
lhand -34.4794 24.715
lfingers 7.12502
lthumb -7.64228 54.5569
rfemur -13.0248 27.1585 26.0536
rtibia 0.977445
rfoot -9.54341 -27.7859
rtoes 5.96965
lfemur -7.9524 -53.0062 3.79167
ltibia -4.91557
lfoot -29.0803 60.0747
ltoes 15.6665
390
root 0.393958 17.5909 8.96862 15.4815 1.67686 -12.1563
lowerback 10.4732 1.67839 4.35272
upperback -6.62757 2.83699 -1.31304
thorax -12.9054 0.882988 -4.50334
lowerneck -17.9182 1.20988 2.86639
upperneck 23.5991 -1.47062 8.76191
head 10.6619 0.673295 2.46157
rclavicle 9.93923e-015 1.11319e-014
rhumerus -13.5613 65.4471 -98.576
rradius 75.6866
rwrist -43.8447
rhand 0.860344 -71.5156
rfingers 7.12502
rthumb 26.4142 -260.305
lclavicle 9.93923e-015 1.11319e-014
lhumerus -15.8083 -38.5958 81.8968
lradius 61.5661
lwrist 66.398
lhand -35.1644 24.5146
lfingers 7.12502
lthumb -8.30347 54.3314
rfemur -12.5008 26.9258 26.3217
rtibia 0.967376
rfoot -9.70675 -27.6009
rtoes 6.0426
lfemur -7.18292 -53.4004 3.15051
ltibia -4.88773
lfoot -29.7544 60.1056
ltoes 15.9546
391
root 0.377531 17.5819 8.97071 15.1599 1.6653 -12.0439
lowerback 10.1207 1.68209 4.49738
upperback -6.73883 2.86473 -1.20234
thorax -12.8143 0.892318 -4.45328
lowerneck -17.6777 1.01684 2.64661
upperneck 24.3728 -1.74155 8.80595
head 10.9123 0.557793 2.49585
rclavicle 2.62396e-014 -2.38542e-014
rhumerus -17.527 65.476 -100.778
rradius 77.3157
rwrist -44.0289
rhand -0.935612 -71.2379
rfingers 7.12502
rthumb 24.6939 -260.336
lclavicle 2.62396e-014 -2.38542e-014
lhumerus -18.6316 -39.3657 83.4347
lradius 63.2263
lwrist 67.5805
lhand -35.845 24.3882
lfingers 7.12502
lthumb -8.96025 54.1779
rfemur -12.0877 26.7046 26.4734
rtibia 1.00902
rfoot -9.85826 -27.3864
rtoes 6.14892
lfemur -6.53186 -53.2207 2.50324
ltibia -4.91247
lfoot -28.9594 59.9408
ltoes 15.2201
392
root 0.361765 17.5747 8.97057 14.88 1.61821 -11.9198
lowerback 9.76607 1.68428 4.63322
upperback -6.87226 2.88583 -1.11246
thorax -12.7477 0.896715 -4.42074
lowerneck -17.2758 0.822153 2.43875
upperneck 24.9467 -1.98492 8.81988
head 11.0573 0.440702 2.51332
rclavicle 8.94531e-015 -1.43125e-014
rhumerus -20.5779 66.8847 -101.826
rradius 79.19
rwrist -45.0334
rhand -4.3035 -70.6428
rfingers 7.12502
rthumb 21.4625 -260.526
lclavicle 8.94531e-015 -1.43125e-014
lhumerus -21.3202 -40.0672 84.949
lradius 64.7428
lwrist 68.4064
lhand -36.3473 24.4909
lfingers 7.12502
lthumb -9.44495 54.2592
rfemur -11.7791 26.5022 26.5607
rtibia 1.11197
rfoot -10.037 -27.1367
rtoes 6.51019
lfemur -6.03724 -52.6689 1.9445
ltibia -4.925
lfoot -27.8869 59.5056
ltoes 14.458
